<svg xmlns="http://www.w3.org/2000/svg" viewBox="0 0 64 64"><title>comments</title><g stroke-width="3" fill="#ffffff" stroke="#ffffff" class="nc-icon-wrapper"><path data-color="color-2" d="M50,18h7a5,5,0,0,1,5,5V43a5,5,0,0,1-5,5H54V58L40,48H28" fill="none" stroke-linecap="square" stroke-miterlimit="10"></path><path d="M45,5H7a5,5,0,0,0-5,5V33a5,5,0,0,0,5,5h5V52L28,38H45a5,5,0,0,0,5-5V10A5,5,0,0,0,45,5Z" fill="none" stroke="#ffffff" stroke-linecap="square" stroke-miterlimit="10"></path></g></svg>