<svg xmlns="http://www.w3.org/2000/svg" viewBox="0 0 48 48"><title>instagram</title><g fill="#ffffff" class="nc-icon-wrapper"><path fill="#ffffff" d="M42.3 0H5.7C2.6 0 0 2.5 0 5.7v36.6C0 45.5 2.6 48 5.7 48h36.6c3.2 0 5.7-2.5 5.7-5.7V5.7C48 2.5 45.4 0 42.3 0zM36 6h4c1.1 0 2 .9 2 2v4c0 1.1-.9 2-2 2h-4c-1.1 0-2-.9-2-2V8c0-1.1.9-2 2-2zm-11.9 8.8c5.1 0 9.2 4.1 9.2 9.2s-4.1 9.2-9.2 9.2-9.2-4.1-9.2-9.2c-.1-5 4.1-9.2 9.2-9.2zM40 42H8c-1.1 0-2-.9-2-2V20h4c-.6 2.2-.7 4.8-.2 7.2 1.2 5.6 5.7 10 11.3 11.1C30.4 40.1 38.6 33 38.6 24c0-1.3-.3-2.8-.7-4.1h4v20c.1 1.2-.8 2.1-1.9 2.1z"></path></g></svg>