<svg xmlns="http://www.w3.org/2000/svg" viewBox="0 0 48 48"><title>whatsapp</title><g class="nc-icon-wrapper"><path fill="#3AC34C" d="M.107 48l3.376-12.325A23.737 23.737 0 0 1 .307 23.784C.312 10.669 10.986 0 24.1 0c6.365.003 12.338 2.48 16.83 6.975a23.638 23.638 0 0 1 6.963 16.828c-.006 13.114-10.68 23.785-23.793 23.785h-.01c-3.982-.002-7.895-1-11.37-2.895L.107 48z"></path><path fill-rule="evenodd" clip-rule="evenodd" fill="#FFF" d="M18.153 13.84c-.482-1.158-.972-1.001-1.337-1.02-.347-.017-.743-.02-1.14-.02s-1.04.148-1.585.743c-.545.595-2.08 2.033-2.08 4.958 0 2.926 2.13 5.752 2.427 6.148.297.397 4.192 6.4 10.156 8.974 1.418.612 2.525.978 3.389 1.252 1.424.452 2.72.389 3.744.236 1.142-.171 3.517-1.438 4.013-2.826.495-1.389.495-2.579.347-2.827-.149-.247-.545-.396-1.14-.694-.594-.297-3.517-1.735-4.062-1.933-.545-.199-.941-.298-1.338.297-.396.595-1.535 1.934-1.882 2.33-.347.397-.694.447-1.288.15-.595-.298-2.51-.926-4.78-2.95-1.768-1.576-2.961-3.523-3.308-4.118-.347-.595-.037-.916.26-1.213.268-.266.595-.694.892-1.04.298-.348.397-.596.595-.992.198-.397.099-.744-.05-1.042-.148-.297-1.337-3.222-1.833-4.412z"></path></g></svg>